<?xml version="1.0" standalone="no"?>
<!DOCTYPE svg PUBLIC "-//W3C//DTD SVG 20010904//EN"
 "http://www.w3.org/TR/2001/REC-SVG-20010904/DTD/svg10.dtd">
<svg version="1.0" xmlns="http://www.w3.org/2000/svg"
 width="200.000000pt" height="200.000000pt" viewBox="0 0 200.000000 200.000000"
 preserveAspectRatio="xMidYMid meet">

<g transform="translate(0.000000,200.000000) scale(0.100000,-0.100000)"
fill="#000000" stroke="none">
<path d="M925 1469 c-249 -36 -430 -283 -394 -536 54 -383 530 -542 804 -268
322 322 43 870 -410 804z m265 -60 c90 -43 170 -119 211 -201 16 -32 29 -61
29 -65 -1 -4 -12 12 -25 37 -34 67 -101 129 -175 164 -59 28 -74 31 -165 31
-93 0 -105 -2 -167 -33 -43 -21 -83 -51 -114 -85 l-47 -52 262 -3 c223 -2 261
-5 261 -17 0 -13 -39 -15 -272 -17 l-273 -3 273 -2 c212 -3 273 -6 269 -16 -3
-9 -73 -13 -278 -17 l-274 -5 273 -3 c214 -2 273 -5 270 -14 -4 -10 -72 -14
-279 -18 l-274 -5 273 -3 c173 -1 272 -6 272 -12 0 -6 -101 -11 -277 -12
l-278 -3 278 -2 c237 -3 277 -5 277 -18 0 -12 -15 -15 -75 -15 -41 0 -75 -4
-75 -8 0 -9 -56 -320 -66 -366 l-6 -29 73 5 c133 8 247 80 313 198 35 61 33
43 -3 -28 -42 -83 -120 -158 -210 -201 -65 -31 -87 -36 -167 -39 -195 -9 -349
83 -433 258 -35 73 -36 78 -36 190 0 112 1 117 36 190 57 118 157 206 278 245
31 10 79 14 146 12 91 -2 106 -5 175 -38z m-50 -460 c0 -8 5 -7 16 2 12 10 20
10 35 1 11 -7 19 -8 19 -2 0 5 9 10 20 10 11 0 20 -7 20 -15 0 -8 -7 -15 -15
-15 -8 0 -15 -4 -15 -10 0 -5 7 -7 15 -4 18 7 20 -7 3 -24 -18 -18 -28 -15
-38 11 -6 15 -9 17 -9 6 -1 -9 -8 -22 -16 -29 -13 -11 -18 -10 -30 6 -8 10
-15 14 -15 8 0 -6 -12 -11 -26 -11 -21 0 -25 3 -20 21 3 11 6 29 6 39 0 11 8
17 25 17 14 0 25 -5 25 -11z m158 -132 c2 -11 -3 -17 -15 -17 -15 0 -16 -2 -3
-10 13 -9 13 -11 0 -20 -12 -8 -12 -10 -1 -10 11 0 10 -5 -4 -20 l-19 -21 -12
22 c-9 17 -13 19 -18 8 -5 -12 -7 -12 -12 0 -5 11 -8 11 -15 0 -8 -12 -11 -11
-19 1 -6 10 -10 11 -10 3 0 -7 -11 -13 -25 -13 -14 0 -25 6 -26 13 0 10 -2 10
-6 0 -7 -19 -23 -16 -24 5 -1 16 -2 16 -6 0 -2 -10 -9 -18 -14 -18 -11 0 -11
7 -3 47 6 29 8 30 60 31 43 0 54 -3 55 -16 1 -15 2 -15 6 1 3 12 15 17 39 17
19 0 34 5 34 11 0 17 34 5 38 -14z"/>
<path d="M689 1013 c-3 -22 4 -83 12 -118 12 -45 58 -130 66 -121 7 6 42 192
43 224 0 20 -4 22 -60 22 -33 0 -60 -3 -61 -7z"/>
<path d="M937 943 c-4 -3 -7 -17 -7 -30 0 -17 5 -24 16 -21 20 4 38 45 24 53
-6 4 -10 -5 -10 -19 0 -14 -5 -26 -10 -26 -6 0 -8 11 -4 25 6 25 3 31 -9 18z"/>
<path d="M992 925 c-15 -33 -16 -31 8 -31 15 0 20 7 20 28 0 35 -13 36 -28 3z"/>
<path d="M1046 935 c-3 -9 -6 -24 -5 -33 0 -9 5 -4 10 12 9 32 6 48 -5 21z"/>
<path d="M865 810 c-20 -39 -19 -62 2 -58 24 4 42 56 24 67 -11 7 -11 10 0 14
10 4 10 6 2 6 -7 1 -19 -12 -28 -29z m21 -16 c-3 -9 -6 -20 -6 -25 0 -5 -4 -9
-9 -9 -4 0 -6 11 -3 25 2 14 9 25 14 25 6 0 7 -7 4 -16z"/>
<path d="M802 790 c-6 -16 -7 -32 -2 -35 5 -3 10 7 12 22 2 16 8 27 16 26 6
-2 12 2 12 7 0 23 -29 8 -38 -20z"/>
<path d="M920 808 c0 -7 -3 -24 -6 -38 -6 -24 -6 -25 9 -5 18 22 22 55 7 55
-5 0 -10 -6 -10 -12z"/>
<path d="M950 796 c-12 -33 -13 -46 -1 -46 9 0 22 61 15 69 -2 2 -8 -8 -14
-23z"/>
<path d="M980 794 c-15 -38 -13 -44 15 -44 16 0 25 6 25 15 0 18 -16 20 -24 3
-3 -7 -4 -2 -3 12 1 18 7 24 21 22 11 -2 15 1 11 7 -11 19 -35 12 -45 -15z"/>
</g>
</svg>
